<svg id="image_black_24dp" xmlns="http://www.w3.org/2000/svg" width="18" height="18" viewBox="0 0 18 18">
  <path id="Path_97" data-name="Path 97" d="M0,0H18V18H0Z" fill="none"/>
  <path id="Path_98" data-name="Path 98" d="M15,4.5V15H4.5V4.5H15M15,3H4.5A1.5,1.5,0,0,0,3,4.5V15a1.5,1.5,0,0,0,1.5,1.5H15A1.5,1.5,0,0,0,16.5,15V4.5A1.5,1.5,0,0,0,15,3Z" transform="translate(-0.75 -0.75)" fill="#fff"/>
  <path id="Path_99" data-name="Path 99" d="M11.355,9.645l-2.25,2.9L7.5,10.6,5.25,13.5h9L11.355,9.645Z" transform="translate(-0.75 -0.75)" fill="#fff" opacity="0.3"/>
</svg>
