<svg id="Dashboard" xmlns="http://www.w3.org/2000/svg" width="17.548" height="14.404" viewBox="0 0 17.548 14.404">
  <path id="Shape" d="M7.521,10.415l5.355-4.05.132-.1a1.148,1.148,0,0,0,.2-1.668,1.221,1.221,0,0,0-.2-.192L7.521.258a1.3,1.3,0,0,0-1.556,0L.472,4.408a1.148,1.148,0,0,0-.2,1.669,1.221,1.221,0,0,0,.2.19l.13.1,5.363,4.051A1.3,1.3,0,0,0,7.521,10.415Z" transform="translate(2.032 0)" fill="#fff"/>
  <path id="Path" d="M7.757,5.017,1.583.215A.989.989,0,0,0,.213.368L.205.378h0A.946.946,0,0,0,.381,1.724l0,0,7.405,5.54a1.648,1.648,0,0,0,1.967,0l7.4-5.536A.952.952,0,0,0,17.345.378l0-.005h0A1,1,0,0,0,15.961.2l-.009.007L9.773,5.017A1.647,1.647,0,0,1,7.757,5.017Z" transform="translate(0 6.81)" fill="#fff" opacity="0.3"/>
</svg>
