<svg xmlns="http://www.w3.org/2000/svg" width="16" height="16" viewBox="0 0 16 16">
  <g id="info-icon" transform="translate(-1507.002 -27.5)">
    <path id="Emir_Šabić" data-name="Emir Šabić" d="M8-14A8,8,0,0,0,0-6,8,8,0,0,0,8,2a8,8,0,0,0,8-8A8,8,0,0,0,8-14ZM8,.5A6.507,6.507,0,0,1,1.5-6,6.507,6.507,0,0,1,8-12.5,6.507,6.507,0,0,1,14.5-6,6.507,6.507,0,0,1,8,.5Z" transform="translate(1507.002 41.5)" fill="silver"/>
    <path id="Emir_Šabić-2" data-name="Emir Šabić" d="M9.25-3.5h-.5V-6.25A.75.75,0,0,0,8-7H7a.752.752,0,0,0-.75.75A.752.752,0,0,0,7-5.5h.25v2h-.5A.752.752,0,0,0,6-2.75.752.752,0,0,0,6.75-2h2.5A.75.75,0,0,0,10-2.75.749.749,0,0,0,9.25-3.5ZM8-8A1,1,0,0,0,9-9a1,1,0,0,0-1-1A1,1,0,0,0,7-9,1,1,0,0,0,8-8Z" transform="translate(1507.002 41.5)" fill="#403f40"/>
  </g>
</svg>
