<svg xmlns="http://www.w3.org/2000/svg" width="15.994" height="14" viewBox="0 0 15.994 14">
  <path id="Path_617" data-name="Path 617" d="M6,.25A.748.748,0,0,1,5.25,1H3A3,3,0,0,1,0-2v-8a3,3,0,0,1,3-3H5.25a.749.749,0,0,1,.75.75.749.749,0,0,1-.75.75H3A1.5,1.5,0,0,0,1.5-10v8A1.5,1.5,0,0,0,3-.5H5.25A.748.748,0,0,1,6,.25Zm9.8-6.762-3.972-4.25a.748.748,0,0,0-1.06-.032.749.749,0,0,0-.032,1.06L13.512-6.75H5.722A.745.745,0,0,0,5-6a.746.746,0,0,0,.722.75h7.762l-2.81,2.986a.749.749,0,0,0,.032,1.06.876.876,0,0,0,.515.2.746.746,0,0,0,.546-.236l3.972-4.25A.7.7,0,0,0,15.8-6.512Z" transform="translate(0 13)" fill="#403f40"/>
</svg>
