<svg xmlns="http://www.w3.org/2000/svg" width="16" height="16" viewBox="0 0 82.404 23.046">
  <g id="Kusur_logo_FINAL-white-01" transform="translate(0 0)">
    <path id="Path_615" data-name="Path 615" d="M134.263,5.025a.821.821,0,0,0-.189-.135C126.4,0,117.863-.567,107.947,3.107c.027-.027.027-.054.054-.108l.081-.189A4.821,4.821,0,0,0,108.7.675a.76.76,0,0,0-.135-.54A.253.253,0,0,0,108.326,0a.7.7,0,0,0-.567.351c-.865,1.459-1.567,2.7-2.242,4l-.054.081c-.108.189-.189.378-.3.594a.537.537,0,0,0-.027.378c.027.108.108.162.216.216a5.4,5.4,0,0,0,1.189.3c.081,0,.135.027.189.027l1.189.243c.946.189,1.837.378,2.783.567.054,0,.3.054.378.054h.162a1.076,1.076,0,0,0,.567-.162A.593.593,0,0,0,111.973,6a.659.659,0,0,0-.216-.243,7.908,7.908,0,0,0-2.513-.892h-.054a7.492,7.492,0,0,0,.7-.27,28.282,28.282,0,0,1,14.86-1.486,30.672,30.672,0,0,1,8.024,2.486c.243.108.459.189.675.27a1.34,1.34,0,0,0,.351.081.5.5,0,0,0,.324-.054.557.557,0,0,0,.3-.486A.618.618,0,0,0,134.263,5.025Z" transform="translate(-76.715 0)" fill="#fc68b1"/>
    <path id="Path_616" data-name="Path 616" d="M0,2.027,4.539,1V14.023L11.023,7h5.133l-5.971,6.511,6.3,10.078H11.239l-4.215-6.7L4.539,19.561v4.026H0Z" transform="translate(0 -0.73)" fill="#fff"/>
    <path id="Path_617" data-name="Path 617" d="M75.574,24.713l4.539,1V39.789H76.088l-.432-2a5.809,5.809,0,0,1-4.863,2.188c-3.4,0-6.592-1.7-6.592-7.592V23.2h4.539v8.592c0,2.972.973,4.431,3.215,4.431,2.27,0,3.593-1.648,3.593-4.7V24.713Z" transform="translate(-46.855 -16.932)" fill="#fff"/>
    <path id="Path_618" data-name="Path 618" d="M136.4,33.62c.162,1.459,1.432,2.459,3.647,2.459,1.891,0,3.053-.621,3.053-1.783,0-1.351-1.135-1.459-3.81-1.81-3.864-.459-6.863-1.324-6.863-4.755,0-3.3,2.864-5.458,7.133-5.431,4.458,0,7.511,1.972,7.754,5.35h-4.35c-.135-1.324-1.378-2.134-3.215-2.134-1.783,0-2.945.648-2.945,1.7,0,1.27,1.432,1.378,3.81,1.675,3.81.378,6.971,1.27,6.971,5,0,3.3-3.107,5.377-7.538,5.377-4.62,0-7.754-2.161-7.943-5.7h4.3Z" transform="translate(-96.409 -16.274)" fill="#fff"/>
    <path id="Path_619" data-name="Path 619" d="M208.374,23.2h4.539V39.789h-4.026l-.432-2a5.809,5.809,0,0,1-4.863,2.188c-3.431,0-6.592-1.7-6.592-7.592V24.713l4.539,1.027v6.052c0,2.972.973,4.431,3.215,4.431,2.27,0,3.593-1.648,3.593-4.7V23.2Z" transform="translate(-143.775 -16.932)" fill="#fff"/>
    <path id="Path_620" data-name="Path 620" d="M277.7,23.2v4.134h-1.81c-2.7,0-3.755,1.81-3.755,4.323v8.132H267.6V23.2h4.134l.432,2.486a4.946,4.946,0,0,1,4.782-2.486Z" transform="translate(-195.3 -16.932)" fill="#fff"/>
  </g>
</svg>
