<svg id="loyalty_black_24dp" xmlns="http://www.w3.org/2000/svg" width="17.5" height="17.5" viewBox="0 0 17.5 17.5">
  <path id="Path_102" data-name="Path 102" d="M0,0H17.5V17.5H0Z" fill="none"/>
  <path id="Path_103" data-name="Path 103" d="M16.153,8.985,9.591,2.423A1.449,1.449,0,0,0,8.563,2h-5.1A1.463,1.463,0,0,0,2,3.458v5.1A1.455,1.455,0,0,0,2.43,9.6L8.993,16.16a1.449,1.449,0,0,0,1.028.423,1.426,1.426,0,0,0,1.028-.43l5.1-5.1a1.426,1.426,0,0,0,.43-1.028A1.473,1.473,0,0,0,16.153,8.985Zm-6.132,6.147L3.458,8.563v-5.1h5.1V3.451l6.563,6.563Z" transform="translate(-0.542 -0.542)" fill="#fff"/>
  <circle id="Ellipse_4" data-name="Ellipse 4" cx="1" cy="1" r="1" transform="translate(4 4)" fill="#fff" opacity="0.3"/>
  <path id="Path_104" data-name="Path 104" d="M8.9,11.995a1.5,1.5,0,0,0,.438,1.057L11.89,15.6l2.552-2.552a1.5,1.5,0,0,0-2.115-2.115l-.437.438-.437-.43a1.476,1.476,0,0,0-1.057-.445A1.5,1.5,0,0,0,8.9,11.995Z" transform="translate(-2.41 -2.844)" fill="#fff" opacity="0.3"/>
</svg>
