<svg id="Group" xmlns="http://www.w3.org/2000/svg" width="17.386" height="13.214" viewBox="0 0 17.386 13.214">
  <path id="_" data-name="" d="M6.954,11.051h3.478a1.741,1.741,0,0,1-3.478,0ZM15,5.063a.62.62,0,1,1,0-1.239h1.739a.62.62,0,1,1,0,1.239Zm-14.344,0a.62.62,0,1,1,0-1.239H2.39a.62.62,0,1,1,0,1.239ZM13.488,1.457a.616.616,0,0,1,.337-.543l1.5-.826A.688.688,0,0,1,15.647.01.636.636,0,0,1,16.3.63a.615.615,0,0,1-.316.531l-1.506.826a.685.685,0,0,1-.337.089A.637.637,0,0,1,13.488,1.457Zm-10.58.53L1.4,1.161A.615.615,0,0,1,1.067.619.637.637,0,0,1,1.72,0a.681.681,0,0,1,.336.088L3.561.914a.614.614,0,0,1,.335.542.636.636,0,0,1-.652.619A.681.681,0,0,1,2.909,1.987Z" transform="translate(0 0.511)" fill="#ddd" opacity="0.3"/>
  <path id="_2" data-name="􏣺" d="M11.3,10.736a.848.848,0,0,0,.872-.826v0a.783.783,0,0,0-.234-.556c-.525-.536-1.507-1.341-1.507-3.982a4.136,4.136,0,0,0-3.476-4V.826a.87.87,0,0,0-1.739,0v.538a4.136,4.136,0,0,0-3.475,4c0,2.64-.982,3.446-1.507,3.982A.784.784,0,0,0,0,9.906v0a.849.849,0,0,0,.872.826Z" transform="translate(2.608)" fill="#fff"/>
</svg>
