<svg xmlns="http://www.w3.org/2000/svg" width="13.106" height="13.106" viewBox="0 0 13.106 13.106">
  <path id="Economico_app" data-name="Economico app" d="M5.728-8.9l-1.77-2.949a.908.908,0,0,0-.7-.4H.41a.41.41,0,0,0-.336.645L2.923-7.536A5.3,5.3,0,0,1,5.728-8.9ZM12.7-12.25H9.851a.819.819,0,0,0-.7.4L7.379-8.9a5.3,5.3,0,0,1,2.8,1.366l2.848-4.069A.41.41,0,0,0,12.7-12.25Zm-6.143,4.1A4.505,4.505,0,0,0,2.048-3.649,4.505,4.505,0,0,0,6.553.856a4.505,4.505,0,0,0,4.505-4.505A4.505,4.505,0,0,0,6.553-8.154ZM8.922-4.129l-.971.946.23,1.337a.294.294,0,0,1-.426.309l-1.2-.631-1.2.631a.294.294,0,0,1-.426-.309l.23-1.337-.971-.946a.294.294,0,0,1,.163-.5l1.342-.2.6-1.216a.289.289,0,0,1,.263-.164.292.292,0,0,1,.264.164l.6,1.216,1.342.2A.294.294,0,0,1,8.922-4.129Z" transform="translate(0 12.25)" fill="#fec478"/>
</svg>
