<svg xmlns="http://www.w3.org/2000/svg" width="19" height="18" viewBox="0 0 19 18">
  <g id="storefront_black_24dp" transform="translate(0 -0.5)">
    <g id="Group_2539" data-name="Group 2539" transform="translate(0 0.5)">
      <rect id="Rectangle_72" data-name="Rectangle 72" width="19" height="18" fill="none"/>
    </g>
    <g id="Group_2541" data-name="Group 2541" transform="translate(1.503 2.248)">
      <g id="Group_2540" data-name="Group 2540">
        <path id="Path_105" data-name="Path 105" d="M17.185,7.414l-.8-3.275A1.493,1.493,0,0,0,14.926,3H4.328a1.493,1.493,0,0,0-1.45,1.139l-.8,3.275a2.5,2.5,0,0,0,.473,2.158,2.9,2.9,0,0,0,.214.217v5.2a1.517,1.517,0,0,0,1.526,1.5H14.972a1.517,1.517,0,0,0,1.526-1.5V9.79a2.8,2.8,0,0,0,.214-.21A2.486,2.486,0,0,0,17.185,7.414ZM14.9,4.491l.8,3.275a1,1,0,0,1-.191.877A.9.9,0,0,1,14.8,9a.947.947,0,0,1-.923-.854L13.431,4.5ZM10.394,4.5h1.5L12.3,7.886a1,1,0,0,1-.252.8A.917.917,0,0,1,11.325,9a.961.961,0,0,1-.931-.982ZM6.953,7.886,7.373,4.5h1.5V8.014A.971.971,0,0,1,7.884,9,.925.925,0,0,1,7.2,8.688,1.052,1.052,0,0,1,6.953,7.886Zm-3.4-.12L4.328,4.5h1.5L5.389,8.141A.953.953,0,0,1,4.466,9a.883.883,0,0,1-.71-.352A.978.978,0,0,1,3.558,7.766Zm.732,7.224V10.472a1.405,1.405,0,0,0,.175.022,2.409,2.409,0,0,0,1.709-.712,2.477,2.477,0,0,0,1.763.712,2.441,2.441,0,0,0,1.7-.7,2.525,2.525,0,0,0,1.747.7A2.445,2.445,0,0,0,13.1,9.782a2.409,2.409,0,0,0,1.709.712,1.405,1.405,0,0,0,.175-.022v4.519Z" transform="translate(-2.005 -3)" fill="#fff"/>
      </g>
    </g>
  </g>
</svg>
