<svg xmlns="http://www.w3.org/2000/svg" width="16" height="16" viewBox="0 0 16 16">
  <g id="questionmark" transform="translate(-1438.002 -28.25)">
    <path id="Path_692" data-name="Path 692" d="M8-3.5a.987.987,0,0,0-1,1,.97.97,0,0,0,1,1,1,1,0,0,0,1-1A1,1,0,0,0,8-3.5ZM9.034-10h-1.6A2.174,2.174,0,0,0,5.25-7.812a.76.76,0,0,0,.75.75.76.76,0,0,0,.75-.75A.67.67,0,0,1,7.409-8.5h1.6a.725.725,0,0,1,.744.688.627.627,0,0,1-.344.566L7.625-6.156A.771.771,0,0,0,7.25-5.5V-5A.76.76,0,0,0,8-4.25.76.76,0,0,0,8.75-5v-.062l1.409-.875a2.23,2.23,0,0,0,1.063-1.875A2.14,2.14,0,0,0,9.034-10Z" transform="translate(1437.766 42)" fill="#403f40"/>
    <path id="Path_693" data-name="Path 693" d="M8-14A8,8,0,0,0,0-6,8,8,0,0,0,8,2a8,8,0,0,0,8-8A8,8,0,0,0,8-14ZM8,.5A6.507,6.507,0,0,1,1.5-6,6.507,6.507,0,0,1,8-12.5,6.507,6.507,0,0,1,14.5-6,6.507,6.507,0,0,1,8,.5Z" transform="translate(1438.002 42.25)" fill="#403f40" opacity="0.3"/>
  </g>
</svg>
