<svg id="Settings" xmlns="http://www.w3.org/2000/svg" width="15.111" height="11.822" viewBox="0 0 15.111 11.822">
  <path id="Combined-Shape" d="M9.333,9.289a1.268,1.268,0,1,1,0-2.533h4.445a1.268,1.268,0,1,1,0,2.533Zm-8-6.755A1.3,1.3,0,0,1,0,1.266,1.3,1.3,0,0,1,1.333,0H5.778A1.3,1.3,0,0,1,7.111,1.266,1.3,1.3,0,0,1,5.778,2.533Z" transform="translate(0 1.689)" fill="#fff" opacity="0.3"/>
  <path id="Combined-Shape-2" data-name="Combined-Shape" d="M0,9.289A2.6,2.6,0,0,1,2.667,6.755,2.6,2.6,0,0,1,5.333,9.289a2.6,2.6,0,0,1-2.667,2.533A2.6,2.6,0,0,1,0,9.289ZM9.778,2.533A2.6,2.6,0,0,1,12.444,0a2.6,2.6,0,0,1,2.667,2.533,2.6,2.6,0,0,1-2.667,2.533A2.6,2.6,0,0,1,9.778,2.533Z" fill="#fff"/>
</svg>
