<svg id="Group_2749" data-name="Group 2749" xmlns="http://www.w3.org/2000/svg" width="18" height="18" viewBox="0 0 18 18">
  <circle id="Ellipse_6" data-name="Ellipse 6" cx="9" cy="9" r="9" fill="#3ac130" opacity="0.1"/>
  <path id="Title" d="M5.25-7.5a.747.747,0,0,1-.22.53l-6,6a.743.743,0,0,1-.53.22.746.746,0,0,1-.53-.22l-3-3a.746.746,0,0,1-.22-.53.75.75,0,0,1,.75-.75.747.747,0,0,1,.53.22L-1.5-2.559,3.97-8.03a.742.742,0,0,1,.53-.22A.749.749,0,0,1,5.25-7.5Z" transform="translate(9 13.5)" fill="#3ac130"/>
</svg>
