<svg xmlns="http://www.w3.org/2000/svg" width="16.001" height="15.201" viewBox="0 0 16.001 15.201">
  <g id="Group" transform="translate(0)">
    <path id="Combined-Shape" d="M3.556,6.756A3.47,3.47,0,0,1,0,3.378,3.47,3.47,0,0,1,3.556,0,3.47,3.47,0,0,1,7.111,3.378,3.47,3.47,0,0,1,3.556,6.756Z" transform="translate(4.445)" fill="#403f40" opacity="0.3"/>
    <path id="Combined-Shape-2" data-name="Combined-Shape" d="M0,6.08C.345,2.049,3.789,0,7.985,0,12.242,0,15.738,1.937,16,6.08a.59.59,0,0,1-.668.676H.647C.424,6.756-.018,6.3,0,6.08Z" transform="translate(0 8.445)" fill="#403f40"/>
  </g>
</svg>
